<svg width="137" height="138" viewBox="0 0 137 138" fill="none" xmlns="http://www.w3.org/2000/svg">
<rect x="40" y="40" width="39" height="39" fill="#BFB3B3"/>
<rect x="57" y="57" width="40" height="41" fill="#803232"/>
<!-- <rect x="40" y="8" width="30.4375" height="26" rx="2" fill="#E5E5E5"/> -->
<rect x="40.5" y="8.5" width="29.4375" height="25" rx="1.5" stroke="black" stroke-opacity="0.14902"/>
<path d="M45.7656 16V24H44.8438V16H45.7656ZM49.8916 24.125C49.3499 24.125 48.8747 23.9961 48.4658 23.7383C48.0596 23.4805 47.7419 23.1198 47.5127 22.6562C47.2861 22.1927 47.1729 21.651 47.1729 21.0312C47.1729 20.4062 47.2861 19.8607 47.5127 19.3945C47.7419 18.9284 48.0596 18.5664 48.4658 18.3086C48.8747 18.0508 49.3499 17.9219 49.8916 17.9219C50.4333 17.9219 50.9072 18.0508 51.3135 18.3086C51.7223 18.5664 52.04 18.9284 52.2666 19.3945C52.4958 19.8607 52.6104 20.4062 52.6104 21.0312C52.6104 21.651 52.4958 22.1927 52.2666 22.6562C52.04 23.1198 51.7223 23.4805 51.3135 23.7383C50.9072 23.9961 50.4333 24.125 49.8916 24.125ZM49.8916 23.2969C50.3031 23.2969 50.6416 23.1914 50.9072 22.9805C51.1729 22.7695 51.3695 22.4922 51.4971 22.1484C51.6247 21.8047 51.6885 21.4323 51.6885 21.0312C51.6885 20.6302 51.6247 20.2565 51.4971 19.9102C51.3695 19.5638 51.1729 19.2839 50.9072 19.0703C50.6416 18.8568 50.3031 18.75 49.8916 18.75C49.4801 18.75 49.1416 18.8568 48.876 19.0703C48.6104 19.2839 48.4137 19.5638 48.2861 19.9102C48.1585 20.2565 48.0947 20.6302 48.0947 21.0312C48.0947 21.4323 48.1585 21.8047 48.2861 22.1484C48.4137 22.4922 48.6104 22.7695 48.876 22.9805C49.1416 23.1914 49.4801 23.2969 49.8916 23.2969ZM56.4395 26.375C55.9941 26.375 55.6113 26.3177 55.291 26.2031C54.9707 26.0911 54.7038 25.9427 54.4902 25.7578C54.2793 25.5755 54.1113 25.3802 53.9863 25.1719L54.7207 24.6563C54.804 24.7656 54.9095 24.8906 55.0371 25.0312C55.1647 25.1745 55.3392 25.2982 55.5605 25.4023C55.7845 25.5091 56.0775 25.5625 56.4395 25.5625C56.9238 25.5625 57.3236 25.4453 57.6387 25.2109C57.9538 24.9766 58.1113 24.6094 58.1113 24.1094V22.8906H58.0332C57.9655 23 57.8691 23.1354 57.7441 23.2969C57.6217 23.4557 57.4447 23.5977 57.2129 23.7227C56.9837 23.8451 56.6738 23.9062 56.2832 23.9062C55.7988 23.9062 55.3639 23.7917 54.9785 23.5625C54.5957 23.3333 54.2923 23 54.0684 22.5625C53.847 22.125 53.7363 21.5937 53.7363 20.9687C53.7363 20.3542 53.8444 19.819 54.0605 19.3633C54.2767 18.9049 54.5775 18.5508 54.9629 18.3008C55.3483 18.0482 55.7936 17.9219 56.2988 17.9219C56.6895 17.9219 56.9993 17.987 57.2285 18.1172C57.4603 18.2448 57.6374 18.3906 57.7598 18.5547C57.8848 18.7161 57.9811 18.849 58.0488 18.9531H58.1426V18H59.0332V24.1719C59.0332 24.6875 58.916 25.1068 58.6816 25.4297C58.4499 25.7552 58.1374 25.9935 57.7441 26.1445C57.3535 26.2982 56.9186 26.375 56.4395 26.375ZM56.4082 23.0781C56.778 23.0781 57.0905 22.9935 57.3457 22.8242C57.6009 22.6549 57.7949 22.4115 57.9277 22.0938C58.0605 21.776 58.127 21.3958 58.127 20.9531C58.127 20.5208 58.0618 20.1393 57.9316 19.8086C57.8014 19.4779 57.6087 19.2187 57.3535 19.0312C57.0983 18.8437 56.7832 18.75 56.4082 18.75C56.0176 18.75 55.6921 18.849 55.4316 19.0469C55.1738 19.2448 54.9798 19.5104 54.8496 19.8438C54.722 20.1771 54.6582 20.5469 54.6582 20.9531C54.6582 21.3698 54.7233 21.7383 54.8535 22.0586C54.9863 22.3763 55.1816 22.6263 55.4395 22.8086C55.6999 22.9883 56.0228 23.0781 56.4082 23.0781ZM63.1582 24.125C62.6165 24.125 62.1413 23.9961 61.7324 23.7383C61.3262 23.4805 61.0085 23.1198 60.7793 22.6562C60.5527 22.1927 60.4395 21.651 60.4395 21.0312C60.4395 20.4062 60.5527 19.8607 60.7793 19.3945C61.0085 18.9284 61.3262 18.5664 61.7324 18.3086C62.1413 18.0508 62.6165 17.9219 63.1582 17.9219C63.6999 17.9219 64.1738 18.0508 64.5801 18.3086C64.9889 18.5664 65.3066 18.9284 65.5332 19.3945C65.7624 19.8607 65.877 20.4062 65.877 21.0312C65.877 21.651 65.7624 22.1927 65.5332 22.6562C65.3066 23.1198 64.9889 23.4805 64.5801 23.7383C64.1738 23.9961 63.6999 24.125 63.1582 24.125ZM63.1582 23.2969C63.5697 23.2969 63.9082 23.1914 64.1738 22.9805C64.4395 22.7695 64.6361 22.4922 64.7637 22.1484C64.8913 21.8047 64.9551 21.4323 64.9551 21.0312C64.9551 20.6302 64.8913 20.2565 64.7637 19.9102C64.6361 19.5638 64.4395 19.2839 64.1738 19.0703C63.9082 18.8568 63.5697 18.75 63.1582 18.75C62.7467 18.75 62.4082 18.8568 62.1426 19.0703C61.877 19.2839 61.6803 19.5638 61.5527 19.9102C61.4251 20.2565 61.3613 20.6302 61.3613 21.0312C61.3613 21.4323 61.4251 21.8047 61.5527 22.1484C61.6803 22.4922 61.877 22.7695 62.1426 22.9805C62.4082 23.1914 62.7467 23.2969 63.1582 23.2969Z" fill="black"/>
</svg>
